<?xml version="1.0" encoding="utf-8"?>
<!-- Generator: Adobe Illustrator 22.1.0, SVG Export Plug-In . SVG Version: 6.00 Build 0)  -->
<svg version="1.1" id="Layer_1" xmlns="http://www.w3.org/2000/svg" xmlns:xlink="http://www.w3.org/1999/xlink" x="0px" y="0px"
	 viewBox="0 0 225 25" style="enable-background:new 0 0 225 25;" xml:space="preserve">
<style type="text/css">
	.st0{fill:#FFFFFF;}
</style>
<g>
	<path class="st0" d="M23.1,17.3c-0.2,0.8-0.8,1.5-1.8,2.1c-1,0.6-2,1-3,1H6.5L7,18.8h7.9c0.5,0,1-0.2,1.5-0.5
		c0.4-0.3,0.7-0.6,0.9-1H9.3c-1,0-1.9-0.3-2.5-0.9C6.2,15.7,6,15,6.2,14.2L7.1,11c0.2-0.8,0.8-1.5,1.8-2.2c1-0.7,2-1,3-1h13.7
		L23.1,17.3z M19.3,9.4h-3.9c-0.3,0-0.5,0-0.8,0.1c-0.3,0.1-0.5,0.2-0.7,0.3c-0.2,0.1-0.4,0.3-0.6,0.5C13.1,10.6,13,10.8,13,11
		l-0.9,3.1c-0.1,0.4,0,0.8,0.3,1.1c0.3,0.3,0.7,0.5,1.2,0.5h3.9L19.3,9.4z"/>
	<path class="st0" d="M43.6,14.2c-0.2,0.8-0.8,1.6-1.8,2.2c-1,0.6-2,0.9-3,0.9H29c-1,0-1.9-0.3-2.5-0.9c-0.6-0.6-0.8-1.4-0.6-2.2
		c0.2-0.8,0.8-1.5,1.8-2.2c1-0.6,2-1,3-1h7.9c0-0.4-0.1-0.8-0.3-1.1C38,9.6,37.6,9.4,37,9.4h-7.9l0.4-1.6h11.8c1,0,1.9,0.3,2.5,1
		c0.6,0.6,0.8,1.4,0.6,2.2L43.6,14.2z M38.1,12.6h-3.9c-0.3,0-0.5,0-0.8,0.1s-0.5,0.2-0.7,0.3c-0.2,0.1-0.4,0.3-0.6,0.5
		c-0.2,0.2-0.3,0.4-0.3,0.6c-0.1,0.4,0,0.8,0.3,1.1c0.3,0.3,0.7,0.5,1.2,0.5h2c0.5,0,1-0.2,1.5-0.5c0.5-0.3,0.8-0.7,0.9-1.1
		L38.1,12.6z"/>
	<path class="st0" d="M56.8,11l0.4-1.6h-2c-0.3,0-0.5,0-0.8,0.1c-0.3,0.1-0.5,0.2-0.7,0.3c-0.2,0.1-0.4,0.3-0.6,0.5
		c-0.2,0.2-0.3,0.4-0.3,0.6l-1.7,6.3h-5.9l1.7-6.3c0.2-0.8,0.8-1.5,1.8-2.2c1-0.7,2-1,3-1h11.8L62.7,11H56.8z"/>
	<path class="st0" d="M66.5,17.3c-1,0-1.9-0.3-2.5-0.9s-0.8-1.4-0.6-2.2l2.5-9.4h5.9L71,7.9h5.9l-0.4,1.6h-5.9l-1.3,4.7
		c-0.1,0.4,0,0.8,0.3,1.1c0.3,0.3,0.7,0.5,1.2,0.5h5.9l-0.4,1.6H66.5z"/>
	<path class="st0" d="M99.5,17.3l1.7-6.3c0-0.2,0-0.4,0-0.6c-0.1-0.2-0.2-0.4-0.3-0.5s-0.3-0.3-0.5-0.3c-0.2-0.1-0.5-0.1-0.7-0.1h-1
		c-0.3,0-0.5,0-0.8,0.1c-0.3,0.1-0.5,0.2-0.7,0.3s-0.4,0.3-0.6,0.5c-0.2,0.2-0.3,0.4-0.3,0.6l-1.7,6.3h-5.9l1.7-6.3
		c0.1-0.4,0-0.8-0.3-1.1c-0.3-0.3-0.7-0.5-1.2-0.5h-1c-0.3,0-0.5,0-0.8,0.1c-0.3,0.1-0.5,0.2-0.7,0.3s-0.4,0.3-0.6,0.5
		c-0.2,0.2-0.3,0.4-0.3,0.6l-1.7,6.3h-5.9l1.7-6.3c0.2-0.8,0.8-1.5,1.8-2.2c1-0.7,2-1,3-1H104c1,0,1.8,0.3,2.5,1
		c0.6,0.6,0.8,1.4,0.6,2.2l-1.7,6.3H99.5z"/>
	<path class="st0" d="M126.3,14.2c-0.2,0.8-0.8,1.6-1.8,2.2s-2,0.9-3,0.9h-9.8c-1,0-1.9-0.3-2.5-0.9c-0.6-0.6-0.8-1.4-0.6-2.2
		c0.2-0.8,0.8-1.5,1.8-2.2c1-0.6,2-1,3-1h7.9c0-0.4-0.1-0.8-0.3-1.1c-0.3-0.3-0.7-0.5-1.2-0.5h-7.9l0.4-1.6H124c1,0,1.9,0.3,2.5,1
		c0.6,0.6,0.8,1.4,0.6,2.2L126.3,14.2z M120.8,12.6h-3.9c-0.3,0-0.5,0-0.8,0.1s-0.5,0.2-0.7,0.3c-0.2,0.1-0.4,0.3-0.6,0.5
		c-0.2,0.2-0.3,0.4-0.3,0.6c-0.1,0.4,0,0.8,0.3,1.1c0.3,0.3,0.7,0.5,1.2,0.5h2c0.5,0,1-0.2,1.5-0.5c0.5-0.3,0.8-0.7,0.9-1.1
		L120.8,12.6z"/>
	<path class="st0" d="M139.8,17.3l1.7-6.3c0-0.2,0-0.4,0-0.6c-0.1-0.2-0.2-0.4-0.3-0.5c-0.1-0.1-0.3-0.3-0.5-0.3
		c-0.2-0.1-0.4-0.1-0.7-0.1H136l-2.1,7.9H128l2.5-9.4h13.8c1,0,1.9,0.3,2.5,1c0.6,0.7,0.8,1.4,0.6,2.2l-1.7,6.3H139.8z"/>
	<path class="st0" d="M169.9,17.3l1.7-6.3c0-0.2,0-0.4,0-0.6c-0.1-0.2-0.2-0.4-0.3-0.5c-0.1-0.1-0.3-0.3-0.5-0.3
		c-0.2-0.1-0.4-0.1-0.7-0.1h-3.9l-2.1,7.9h-5.9l2.5-9.4h13.8c1,0,1.9,0.3,2.5,1c0.6,0.7,0.8,1.4,0.6,2.2l-1.7,6.3H169.9z"/>
	<path class="st0" d="M190.1,17.3l0.6-2.4c0.1-0.4,0-0.8-0.3-1.1s-0.7-0.5-1.2-0.5h-2c-0.5,0-1,0.2-1.5,0.5
		c-0.5,0.3-0.8,0.7-0.9,1.1l-0.6,2.4h-5.9l0.5-1.9c0.2-0.6,0.5-1.1,1.1-1.7c0.6-0.5,1.2-0.9,2-1.2c-0.6-0.3-1-0.7-1.3-1.2
		s-0.4-1.1-0.2-1.7l0.5-1.9h5.9l-0.6,2.4c-0.1,0.2-0.1,0.4,0,0.6c0.1,0.2,0.2,0.4,0.3,0.5s0.3,0.3,0.5,0.3c0.2,0.1,0.4,0.1,0.7,0.1
		h2c0.3,0,0.5,0,0.8-0.1c0.3-0.1,0.5-0.2,0.7-0.3c0.2-0.1,0.4-0.3,0.6-0.5c0.2-0.2,0.3-0.4,0.3-0.6l0.6-2.4h5.9L198,9.7
		c-0.2,0.6-0.5,1.1-1.1,1.7c-0.6,0.5-1.2,0.9-2,1.2c0.6,0.3,1.1,0.6,1.4,1.2c0.3,0.5,0.3,1.1,0.2,1.7l-0.5,1.9H190.1z"/>
	<path class="st0" d="M217.1,14.2c-0.2,0.8-0.8,1.6-1.8,2.2c-1,0.6-2,0.9-3,0.9h-7.9l-0.8,3.1h-5.9l3.4-12.6h13.8c1,0,1.9,0.3,2.5,1
		c0.6,0.7,0.8,1.4,0.6,2.2L217.1,14.2z M212.1,11c0-0.2,0-0.4,0-0.6c-0.1-0.2-0.2-0.4-0.3-0.5c-0.1-0.1-0.3-0.3-0.5-0.3
		c-0.2-0.1-0.4-0.1-0.7-0.1h-3.9l-1.7,6.3h3.9c0.5,0,1-0.2,1.5-0.5c0.5-0.3,0.8-0.7,0.9-1.1L212.1,11z"/>
</g>
</svg>
