<svg id="Layer_1" data-name="Layer 1" xmlns="http://www.w3.org/2000/svg" viewBox="0 0 161.91 87.06"><defs><style>.cls-1{fill:#0060a9;}.cls-2{fill:#2da343;}</style></defs><title>Gartman</title><path class="cls-1" d="M85.84,40.36c9.28-6.14,19.34-10,27.88-11.09a85.74,85.74,0,0,0-17.11,8.82C78.33,50.2,69,66,75.85,73.3c5.67,6,20.66,4.33,36-3.28-17.57,11.2-37.52,14-44.85,6.29C59.52,68.35,68,52.19,85.84,40.36Z" transform="translate(-17.86 -29.27)"/><path class="cls-2" d="M97.21,61c2.28-.28,4-2,3.72-3.95s-2.3-3.18-4.58-2.9-4,2.07-3.71,3.94S94.91,61.24,97.21,61Z" transform="translate(-17.86 -29.27)"/><path class="cls-1" d="M103.58,56.37c9-2.76,16-2.68,18.53.86,4.12,5.66-4.19,18.47-19.11,30.89,19.8-13.91,31.53-30.87,26.19-38.18-3.89-5.38-15.92-4.14-30,2.15A5.79,5.79,0,0,1,103.58,56.37Z" transform="translate(-17.86 -29.27)"/><path class="cls-1" d="M179.78,102.4v.28a7,7,0,0,1-.16.91l-2.27,8.47H170l2.25-8.5a1.11,1.11,0,0,0-.2-1.11,1.27,1.27,0,0,0-1.06-.51h-3.89l-2.71,10.12H157.1l3.49-12.92h15.52A3.47,3.47,0,0,1,179,100.5a3.27,3.27,0,0,1,.76,1.9Zm-34.23,9.66V109.2H146a2.24,2.24,0,0,0,1.32-.48,1.89,1.89,0,0,0,.81-1.11l.45-1.62h-3v-2.81h3.66a1.18,1.18,0,0,0-1.26-1.24h-2.4v-2.8H153a3.49,3.49,0,0,1,2.93,1.36,3.37,3.37,0,0,1,.61,3.09l-1.09,4a5.61,5.61,0,0,1-2.27,3.11,5.93,5.93,0,0,1-3.62,1.34Zm0-12.92v2.8h-6.63l.74-2.8Zm0,4V106h-.86a2,2,0,0,0-1.32.5,2.36,2.36,0,0,0-.86,1.12,1.26,1.26,0,0,0,.26,1.13,1.36,1.36,0,0,0,1.06.46h1.72v2.86H138.8a3.71,3.71,0,0,1-3-1.34,3.39,3.39,0,0,1-.61-3.11,6,6,0,0,1,2.25-3.09,6.29,6.29,0,0,1,3.71-1.34ZM83.74,110v-2.88L87,94.87h7.33l-1.11,4.07h6.49L99,101.82h-6.5l-1.52,5.71a1.31,1.31,0,0,0,.23,1.14,1.18,1.18,0,0,0,1,.5h6.9l-.76,2.89H87.18a3.56,3.56,0,0,1-3-1.37,3.18,3.18,0,0,1-.46-.73Zm0-9.81.28-1h-.28v1Zm42.6,3.41a1.27,1.27,0,0,0-.23-1.11,1.3,1.3,0,0,0-1-.51H124a2.22,2.22,0,0,0-1.32.51,2.38,2.38,0,0,0-.83,1.11l-2.27,8.5h-7.31l2.25-8.5a1.11,1.11,0,0,0-.23-1.11,1.21,1.21,0,0,0-1.06-.51h-1.06a2.25,2.25,0,0,0-1.34.51,2.43,2.43,0,0,0-.84,1.11l-2.25,8.5h-7.33l2.28-8.47a5.63,5.63,0,0,1,2.25-3.09,6,6,0,0,1,3.69-1.36h21.54a3.44,3.44,0,0,1,2.9,1.36,3.21,3.21,0,0,1,.61,3.09l-2.25,8.47h-7.33Zm-42.6-4.42v1l-1,3.82H75.42l.53-2H74.21A2.53,2.53,0,0,0,72,103.56l-2.25,8.5H62.46l2.27-8.47A5.73,5.73,0,0,1,67,100.5a6,6,0,0,1,3.69-1.36Zm0,7.94-.13.45a3.63,3.63,0,0,0,.13,2.43v-2.88Zm-32.79,5V109.2h.46a2.14,2.14,0,0,0,1.31-.48,1.78,1.78,0,0,0,.81-1.11L54,106H51v-2.81h3.69c-.1-.81-.5-1.24-1.29-1.24H51v-2.8h7.49a3.53,3.53,0,0,1,2.93,1.36,3.28,3.28,0,0,1,.58,3.09l-1.09,4a5.66,5.66,0,0,1-2.25,3.11A6.1,6.1,0,0,1,55,112.06Zm0-12.92v2.8H44.33l.76-2.8Zm0,4V106h-.83a2.07,2.07,0,0,0-1.34.5,2.31,2.31,0,0,0-.84,1.12,1.21,1.21,0,0,0,.26,1.13,1.28,1.28,0,0,0,1.06.46H51v2.86H44.23a3.72,3.72,0,0,1-3-1.34,3.17,3.17,0,0,1-.68-1.52v-1.14c0-.12.05-.28.07-.45a6,6,0,0,1,2.25-3.09,6.44,6.44,0,0,1,3.75-1.34ZM40.54,99.29v-.15h0ZM28.86,109.38H30.5l2-7.39H28.86V99.14H40.54v.15l-3.39,12.56a5.66,5.66,0,0,1-2.3,3.09,5.75,5.75,0,0,1-3.61,1.39H28.86V113a3,3,0,0,0,.73-.83h-.73v-2.83Zm11.68-1.32a2.73,2.73,0,0,0,0,1.14Zm-12-6.07a2.21,2.21,0,0,0-1.34.51,2.12,2.12,0,0,0-.81,1.14l-1.11,4.09a1.17,1.17,0,0,0,.23,1.17,1.41,1.41,0,0,0,1.06.48h2.25v2.83H21.55a3.65,3.65,0,0,1-3-1.34,3.35,3.35,0,0,1-.71-2v-.23a4.17,4.17,0,0,1,.13-1l1.14-4.09a5.66,5.66,0,0,1,2.25-3.14,6,6,0,0,1,3.69-1.36h3.79V102ZM28.86,113v3.29h-11l.73-2.88h9.05A1.87,1.87,0,0,0,28.86,113Z" transform="translate(-17.86 -29.27)"/></svg>