<?xml version="1.0" encoding="utf-8"?>
<!-- Generator: Adobe Illustrator 22.1.0, SVG Export Plug-In . SVG Version: 6.00 Build 0)  -->
<svg version="1.1" id="Layer_1" xmlns="http://www.w3.org/2000/svg" xmlns:xlink="http://www.w3.org/1999/xlink" x="0px" y="0px"
	 viewBox="0 0 166.9 89.2" style="enable-background:new 0 0 166.9 89.2;" xml:space="preserve">
<style type="text/css">
	.st0{fill:#0060A9;}
	.st1{fill:#2DA343;}
</style>
<path class="st0" d="M66.4,12C75.6,5.9,85.5,2.1,94,1c-5.6,2.1-11.3,5-16.9,8.7C59,21.7,49.8,37.4,56.6,44.6
	c5.6,5.9,20.4,4.3,35.6-3.3c-17.4,11.1-37.1,13.9-44.4,6.2C40.4,39.7,48.8,23.7,66.4,12z"/>
<path class="st1" d="M77.7,32.4c2.3-0.3,3.9-2,3.7-3.9c-0.2-1.9-2.3-3.2-4.5-2.9c-2.3,0.3-3.9,2.1-3.7,3.9
	C73.4,31.4,75.4,32.6,77.7,32.4z"/>
<path class="st0" d="M84,27.8c8.9-2.7,15.8-2.7,18.3,0.9c4.1,5.6-4.2,18.3-18.9,30.6c19.6-13.8,31.2-30.5,25.9-37.8
	c-3.9-5.3-15.8-4.1-29.7,2.1C81.9,24.2,83.6,25.8,84,27.8z"/>
<g>
	<path class="st0" d="M20,85.6c-0.3,0.9-1,1.8-2.1,2.5c-1.1,0.8-2.3,1.1-3.6,1.1H0.5L1,87.3h9.3c0.6,0,1.2-0.2,1.7-0.6
		c0.5-0.3,0.8-0.7,1.1-1.2H3.8c-1.2,0-2.2-0.4-3-1.1c-0.7-0.7-1-1.6-0.7-2.6l1-3.7c0.2-0.9,0.9-1.8,2.1-2.6c1.2-0.8,2.3-1.2,3.6-1.2
		H23L20,85.6z M15.6,76.3h-4.7c-0.3,0-0.6,0-0.9,0.1s-0.6,0.2-0.8,0.4s-0.5,0.4-0.7,0.6s-0.3,0.5-0.4,0.7l-1,3.7
		c-0.1,0.5,0,0.9,0.4,1.3c0.3,0.4,0.8,0.6,1.4,0.6h4.7L15.6,76.3z"/>
	<path class="st0" d="M44.3,81.9c-0.3,1-1,1.9-2.1,2.6s-2.3,1.1-3.5,1.1H27.1c-1.2,0-2.2-0.4-3-1.1c-0.7-0.7-1-1.6-0.7-2.6
		c0.3-0.9,1-1.8,2.1-2.6c1.2-0.8,2.4-1.1,3.6-1.1h9.3c0-0.5-0.1-0.9-0.4-1.3c-0.3-0.4-0.8-0.6-1.4-0.6h-9.3l0.5-1.9h13.9
		c1.2,0,2.2,0.4,2.9,1.2c0.7,0.8,1,1.6,0.7,2.6L44.3,81.9z M37.9,80h-4.7c-0.3,0-0.6,0.1-0.9,0.2s-0.6,0.2-0.8,0.4
		c-0.3,0.2-0.5,0.4-0.7,0.6s-0.3,0.5-0.4,0.7c-0.1,0.5,0,0.9,0.4,1.3c0.3,0.4,0.8,0.6,1.4,0.6h2.4c0.6,0,1.2-0.2,1.8-0.6
		s0.9-0.8,1.1-1.3L37.9,80z"/>
	<path class="st0" d="M59.9,78.1l0.5-1.8h-2.3c-0.3,0-0.6,0-0.9,0.1s-0.6,0.2-0.9,0.4s-0.5,0.4-0.7,0.6s-0.3,0.5-0.4,0.7l-2,7.4h-7
		l2-7.4c0.3-0.9,1-1.8,2.1-2.6c1.2-0.8,2.3-1.2,3.5-1.2h13.9l-1,3.7h-6.8V78.1z"/>
	<path class="st0" d="M71.4,85.6c-1.2,0-2.2-0.4-2.9-1.1c-0.7-0.7-1-1.6-0.7-2.6l3-11.1h7l-1,3.7h7l-0.5,1.9h-7L74.8,82
		c-0.1,0.5,0,0.9,0.4,1.3c0.3,0.4,0.8,0.6,1.5,0.6h7l-0.5,1.8H71.4V85.6z"/>
	<path class="st0" d="M110.4,85.6l2-7.4c0.1-0.2,0.1-0.5,0-0.7s-0.2-0.4-0.3-0.6s-0.4-0.3-0.6-0.4c-0.3-0.1-0.5-0.1-0.8-0.1h-1.2
		c-0.3,0-0.6,0-0.9,0.1c-0.3,0.1-0.6,0.2-0.8,0.4s-0.5,0.4-0.7,0.6s-0.3,0.5-0.4,0.7l-2,7.4h-7l2-7.4c0.1-0.5,0-0.9-0.4-1.3
		c-0.3-0.4-0.8-0.6-1.5-0.6h-1.2c-0.3,0-0.6,0-0.9,0.1s-0.6,0.2-0.8,0.4s-0.5,0.4-0.7,0.6s-0.3,0.5-0.4,0.7l-2,7.4h-7l2-7.4
		c0.3-0.9,1-1.8,2.1-2.6c1.2-0.8,2.3-1.2,3.5-1.2h23.2c1.2,0,2.2,0.4,2.9,1.2c0.7,0.8,1,1.6,0.7,2.6l-2,7.4h-6.8V85.6z"/>
	<path class="st0" d="M142,81.9c-0.3,1-1,1.9-2.1,2.6s-2.3,1.1-3.5,1.1h-11.6c-1.2,0-2.2-0.4-3-1.1c-0.7-0.7-1-1.6-0.7-2.6
		c0.3-0.9,1-1.8,2.1-2.6c1.2-0.8,2.4-1.1,3.6-1.1h9.3c0-0.5-0.1-0.9-0.4-1.3c-0.3-0.4-0.8-0.6-1.4-0.6H125l0.5-1.9h13.9
		c1.2,0,2.2,0.4,2.9,1.2c0.7,0.8,1,1.6,0.7,2.6L142,81.9z M135.5,80h-4.7c-0.3,0-0.6,0.1-0.9,0.2s-0.6,0.2-0.8,0.4
		c-0.3,0.2-0.5,0.4-0.7,0.6s-0.3,0.5-0.4,0.7c-0.1,0.5,0,0.9,0.4,1.3c0.3,0.4,0.8,0.6,1.4,0.6h2.3c0.6,0,1.2-0.2,1.8-0.6
		s0.9-0.8,1.1-1.3L135.5,80z"/>
	<path class="st0" d="M157.9,85.6l2-7.4c0.1-0.2,0.1-0.5,0-0.7s-0.2-0.4-0.4-0.6s-0.4-0.3-0.6-0.4c-0.3-0.1-0.5-0.1-0.8-0.1h-4.6
		l-2.5,9.3h-7l3-11.2h16.2c1.2,0,2.2,0.4,2.9,1.2c0.7,0.8,1,1.6,0.7,2.6l-2,7.4h-6.9V85.6z"/>
</g>
</svg>
