<svg id="Layer_1" data-name="Layer 1" xmlns="http://www.w3.org/2000/svg" viewBox="0 0 96 96"><defs><style>.cls-1{fill:#e6e6e6;}</style></defs><title>File-photo</title><g id="_Group_" data-name="&lt;Group&gt;"><path id="_Compound_Path_" data-name="&lt;Compound Path&gt;" class="cls-1" d="M66.45,37.69A6.17,6.17,0,0,1,68,41.45V67.73a2.25,2.25,0,0,1-.47,1.44,2.14,2.14,0,0,1-1.72.83H35.27a2.27,2.27,0,0,1-1.45-.47A2.15,2.15,0,0,1,33,67.8V31.27a2.25,2.25,0,0,1,.47-1.44A2.14,2.14,0,0,1,35.19,29H55.6a5.17,5.17,0,0,1,2,.46,5.1,5.1,0,0,1,1.73,1.1ZM56,32.4V41h8.6a2.51,2.51,0,0,0-.5-.94L56.94,32.9A2.6,2.6,0,0,0,56,32.4ZM65,67V44H55.31a2.29,2.29,0,0,1-1.45-.47A2.21,2.21,0,0,1,53,41.75V32H36V67ZM62,56.68V64H39V59.61l4.31-4.4,2.88,2.93,8.62-8.78ZM42.82,52.43a4.37,4.37,0,1,1,3.11-1.28A4.24,4.24,0,0,1,42.82,52.43Z"/></g></svg>