<svg id="Layer_1" data-name="Layer 1" xmlns="http://www.w3.org/2000/svg" viewBox="0 0 255.39 18.46"><defs><style>.cls-1{fill:#fff;}</style></defs><title>GartmanSloooooooooogan</title><path class="cls-1" d="M1.43,2.47H4.37a3.75,3.75,0,0,1,2.72.87A4.73,4.73,0,0,1,8.22,6.79a5.85,5.85,0,0,1-.6,2.86A2.53,2.53,0,0,1,5.92,11L9,19.06H6.71l-3-8.12v8.12H1.43ZM3.67,9.82a2.37,2.37,0,0,0,1.83-.6,3,3,0,0,0,.54-2,7,7,0,0,0-.11-1.32A2.43,2.43,0,0,0,5.57,5,1.46,1.46,0,0,0,5,4.47,2.31,2.31,0,0,0,4,4.31H3.67Z" transform="translate(-1.43 -0.81)"/><path class="cls-1" d="M14.57,15.31h1.91q-.23,3.92-3.22,3.92a3.26,3.26,0,0,1-1.53-.33,2.68,2.68,0,0,1-1.06-1,5.3,5.3,0,0,1-.62-1.78,14.33,14.33,0,0,1-.2-2.55,9.05,9.05,0,0,1,.82-4.36,2.74,2.74,0,0,1,2.55-1.42c2.22,0,3.34,2,3.34,5.89v.25h-4.7c0,2.38.47,3.57,1.42,3.57S14.57,16.75,14.57,15.31Zm-.11-2.89a7.29,7.29,0,0,0-.4-2.3,1,1,0,0,0-1.8,0,7.6,7.6,0,0,0-.4,2.3Z" transform="translate(-1.43 -0.81)"/><path class="cls-1" d="M24.73,7.94V19.06H22.68V17.63a3.58,3.58,0,0,1-.88,1.26,1.84,1.84,0,0,1-1.16.34,2.12,2.12,0,0,1-2-1.42A11.32,11.32,0,0,1,18,13.37a10.43,10.43,0,0,1,.65-4.25,2.12,2.12,0,0,1,2-1.36,2.31,2.31,0,0,1,2,1.44V7.94Zm-4.64,5.51a11.12,11.12,0,0,0,.29,3.06,1.09,1.09,0,0,0,1.05.87c.46,0,.79-.3,1-.9a10.31,10.31,0,0,0,.31-3,10.42,10.42,0,0,0-.31-3c-.21-.6-.54-.9-1-.9a1.09,1.09,0,0,0-1,.86A9.74,9.74,0,0,0,20.09,13.45Z" transform="translate(-1.43 -0.81)"/><path class="cls-1" d="M27.06.81h2.05V19.06H27.06Z" transform="translate(-1.43 -0.81)"/><path class="cls-1" d="M41.65,2.82V5a3.24,3.24,0,0,0-1.84-.73,1.88,1.88,0,0,0-1.44.62,2.21,2.21,0,0,0-.56,1.58A2.74,2.74,0,0,0,38.21,8a6.45,6.45,0,0,0,.67.86c.32.35.72.78,1.21,1.27A9.75,9.75,0,0,1,42,12.49a5.25,5.25,0,0,1,.49,2.39,4.67,4.67,0,0,1-1.08,3.17,3.55,3.55,0,0,1-2.78,1.21,3.85,3.85,0,0,1-2.44-.78V16.27a3.79,3.79,0,0,0,2.17.87,1.8,1.8,0,0,0,1.43-.61,2.49,2.49,0,0,0,.51-1.65,3.35,3.35,0,0,0-.39-1.62,7.83,7.83,0,0,0-.57-.79,12.88,12.88,0,0,0-.92-1c-.56-.56-1-1.06-1.4-1.49a6.74,6.74,0,0,1-.83-1.12,5,5,0,0,1-.52-2.39,4.48,4.48,0,0,1,1-3.08,3.48,3.48,0,0,1,2.74-1.15A4.82,4.82,0,0,1,41.65,2.82Z" transform="translate(-1.43 -0.81)"/><path class="cls-1" d="M50.77,13.59q0,5.64-3.49,5.64t-3.49-5.72c0-3.84,1.16-5.75,3.48-5.75a3.32,3.32,0,0,1,1.56.34,2.79,2.79,0,0,1,1.09,1.07A5.48,5.48,0,0,1,50.56,11,14.05,14.05,0,0,1,50.77,13.59Zm-2.13-.05a10.6,10.6,0,0,0-.29-3,1.06,1.06,0,0,0-1-.87,1.08,1.08,0,0,0-1,.86,10.67,10.67,0,0,0-.29,3,10.63,10.63,0,0,0,.29,3,1.09,1.09,0,0,0,1,.86,1,1,0,0,0,1-.85A9.56,9.56,0,0,0,48.64,13.54Z" transform="translate(-1.43 -0.81)"/><path class="cls-1" d="M52.68.81h2V19.06h-2Z" transform="translate(-1.43 -0.81)"/><path class="cls-1" d="M57.06,7.94h2.06v7.44a2.94,2.94,0,0,0,.3,1.47,1.06,1.06,0,0,0,.95.44,1.13,1.13,0,0,0,1-.39,2.59,2.59,0,0,0,.28-1.42V7.94h2v6.65a9.21,9.21,0,0,1-.34,3.12,3,3,0,0,1-3,1.52,3.12,3.12,0,0,1-2.53-.9,4.82,4.82,0,0,1-.76-3Z" transform="translate(-1.43 -0.81)"/><path class="cls-1" d="M66.25,4.83h2V7.94h1.12V9.57H68.3v9.49h-2V9.57H65.12V7.94h1.13Z" transform="translate(-1.43 -0.81)"/><path class="cls-1" d="M71.86,3.21a1.32,1.32,0,0,1,1,.41,1.32,1.32,0,0,1,.41,1,1.31,1.31,0,0,1-.41,1,1.39,1.39,0,0,1-2.37-1,1.36,1.36,0,0,1,.41-1A1.42,1.42,0,0,1,71.86,3.21Zm-1,4.73H73V19.06H70.89Z" transform="translate(-1.43 -0.81)"/><path class="cls-1" d="M81.83,13.59q0,5.64-3.5,5.64c-2.32,0-3.49-1.91-3.49-5.72S76,7.76,78.32,7.76a3.34,3.34,0,0,1,1.57.34A2.79,2.79,0,0,1,81,9.17,5.72,5.72,0,0,1,81.62,11,14.05,14.05,0,0,1,81.83,13.59Zm-2.13-.05a11,11,0,0,0-.29-3,1.05,1.05,0,0,0-2.07,0,10.3,10.3,0,0,0-.29,3,10.26,10.26,0,0,0,.29,3,1.09,1.09,0,0,0,1,.86,1.06,1.06,0,0,0,1-.85A9.56,9.56,0,0,0,79.7,13.54Z" transform="translate(-1.43 -0.81)"/><path class="cls-1" d="M83.74,7.94h2.05V9.22a2.62,2.62,0,0,1,2.28-1.46A2,2,0,0,1,90,8.82a5.53,5.53,0,0,1,.32,2.33v7.91h-2V11.63A3.4,3.4,0,0,0,88,10a1,1,0,0,0-.92-.48,1.21,1.21,0,0,0-.6.13.92.92,0,0,0-.39.39,2.36,2.36,0,0,0-.22.72,6.58,6.58,0,0,0-.07,1.08v7.19H83.74Z" transform="translate(-1.43 -0.81)"/><path class="cls-1" d="M96.94,8.17v1.92a2.63,2.63,0,0,0-1.58-.56,1.19,1.19,0,0,0-.51.1,1.29,1.29,0,0,0-.42.26,1.22,1.22,0,0,0-.38.89q0,.8,1.44,1.89a10,10,0,0,1,1,.84,4,4,0,0,1,.59.73,3.17,3.17,0,0,1,.42,1.7,3.31,3.31,0,0,1-.87,2.4,3.1,3.1,0,0,1-2.31.89,3.6,3.6,0,0,1-1.81-.52v-2a2.9,2.9,0,0,0,1.69.66A1.23,1.23,0,0,0,95.58,16a1.53,1.53,0,0,0-.26-.89,2.29,2.29,0,0,0-.38-.43q-.25-.24-.63-.54a8,8,0,0,1-1.76-1.7,3.11,3.11,0,0,1-.45-1.71,3.06,3.06,0,0,1,.82-2.2,3,3,0,0,1,2.18-.85A3.73,3.73,0,0,1,96.94,8.17Z" transform="translate(-1.43 -0.81)"/><path class="cls-1" d="M100.26,16.57a1.24,1.24,0,0,1,.91.39,1.28,1.28,0,0,1,.39.94,1.25,1.25,0,0,1-.39.93,1.33,1.33,0,0,1-.93.38,1.27,1.27,0,0,1-.52-.1,1.39,1.39,0,0,1-.43-.28,1.34,1.34,0,0,1-.28-.42A1.37,1.37,0,0,1,99.29,17,1.38,1.38,0,0,1,100.26,16.57Z" transform="translate(-1.43 -0.81)"/><path class="cls-1" d="M112.89,2.47h3a3.74,3.74,0,0,1,2.71.87,4.69,4.69,0,0,1,1.13,3.45,5.85,5.85,0,0,1-.6,2.86,2.53,2.53,0,0,1-1.7,1.34l3.05,8.07h-2.26l-3-8.12v8.12h-2.24Zm2.24,7.35a2.37,2.37,0,0,0,1.83-.6,3,3,0,0,0,.54-2,7,7,0,0,0-.11-1.32A2.43,2.43,0,0,0,117,5a1.46,1.46,0,0,0-.62-.51,2.28,2.28,0,0,0-.91-.16h-.37Z" transform="translate(-1.43 -0.81)"/><path class="cls-1" d="M126,15.31h1.91q-.22,3.92-3.22,3.92a3.26,3.26,0,0,1-1.53-.33,2.68,2.68,0,0,1-1.06-1,5.53,5.53,0,0,1-.62-1.78,14.33,14.33,0,0,1-.2-2.55,8.92,8.92,0,0,1,.83-4.36,2.72,2.72,0,0,1,2.54-1.42c2.22,0,3.34,2,3.34,5.89v.25h-4.7c0,2.38.48,3.57,1.42,3.57S126,16.75,126,15.31Zm-.11-2.89a7.29,7.29,0,0,0-.4-2.3,1,1,0,0,0-1.8,0,7.6,7.6,0,0,0-.4,2.3Z" transform="translate(-1.43 -0.81)"/><path class="cls-1" d="M136.19,7.94V19.06h-2.05V17.63a3.58,3.58,0,0,1-.88,1.26,1.84,1.84,0,0,1-1.16.34,2.13,2.13,0,0,1-2-1.42,11.32,11.32,0,0,1-.65-4.44,10.43,10.43,0,0,1,.65-4.25,2.13,2.13,0,0,1,2-1.36,2.31,2.31,0,0,1,2,1.44V7.94Zm-4.64,5.51a11.12,11.12,0,0,0,.29,3.06,1.09,1.09,0,0,0,1,.87c.46,0,.8-.3,1-.9a10.24,10.24,0,0,0,.32-3,10.35,10.35,0,0,0-.32-3c-.2-.6-.54-.9-1-.9a1.09,1.09,0,0,0-1,.86A9.74,9.74,0,0,0,131.55,13.45Z" transform="translate(-1.43 -0.81)"/><path class="cls-1" d="M138.52.81h2.06V19.06h-2.06Z" transform="translate(-1.43 -0.81)"/><path class="cls-1" d="M146.26,2.47h7.27v2H151V19.06h-2.19V4.43h-2.58Z" transform="translate(-1.43 -0.81)"/><path class="cls-1" d="M156.14,3.21a1.4,1.4,0,0,1,1.38,1.39,1.35,1.35,0,0,1-.41,1,1.37,1.37,0,0,1-1,.41,1.35,1.35,0,0,1-1-.41,1.39,1.39,0,0,1-.4-1,1.36,1.36,0,0,1,.41-1A1.46,1.46,0,0,1,156.14,3.21Zm-1,4.73h2.07V19.06h-2.07Z" transform="translate(-1.43 -0.81)"/><path class="cls-1" d="M159.54,7.94h2.06V9.32a2.52,2.52,0,0,1,2.25-1.56,2.08,2.08,0,0,1,2.09,1.56,2.52,2.52,0,0,1,2.32-1.56,2.37,2.37,0,0,1,1.78.62,2.43,2.43,0,0,1,.62,1.82v8.86H168.6V11.74a3.9,3.9,0,0,0-.24-1.68.88.88,0,0,0-.88-.44,1.08,1.08,0,0,0-1,.45,3.72,3.72,0,0,0-.25,1.67v7.32h-2.13V11.74a6.9,6.9,0,0,0-.06-1,1.91,1.91,0,0,0-.2-.66.89.89,0,0,0-.36-.36,1.19,1.19,0,0,0-.56-.11,1.09,1.09,0,0,0-1,.48,3.28,3.28,0,0,0-.3,1.64v7.32h-2.06Z" transform="translate(-1.43 -0.81)"/><path class="cls-1" d="M177.28,15.31h1.91Q179,19.23,176,19.23a3.32,3.32,0,0,1-1.53-.33,2.68,2.68,0,0,1-1.06-1,5.53,5.53,0,0,1-.62-1.78,14.43,14.43,0,0,1-.19-2.55,8.93,8.93,0,0,1,.82-4.36,2.73,2.73,0,0,1,2.54-1.42q3.34,0,3.34,5.89v.25h-4.7c0,2.38.48,3.57,1.42,3.57S177.28,16.75,177.28,15.31Zm-.11-2.89a7.38,7.38,0,0,0-.39-2.3.94.94,0,0,0-.91-.61.92.92,0,0,0-.9.61,7.6,7.6,0,0,0-.4,2.3Z" transform="translate(-1.43 -0.81)"/><path class="cls-1" d="M182.24,16.57a1.26,1.26,0,0,1,.92.39,1.31,1.31,0,0,1,.38.94,1.28,1.28,0,0,1-.38.93,1.38,1.38,0,0,1-.94.38,1.3,1.3,0,0,1-.52-.1,1.34,1.34,0,0,1-.42-.28,1.22,1.22,0,0,1-.29-.42,1.35,1.35,0,0,1,.29-1.46A1.34,1.34,0,0,1,182.24,16.57Z" transform="translate(-1.43 -0.81)"/><path class="cls-1" d="M190.32,2.47h2.09l2.22,6.62c.64,1.87,1.21,3.87,1.71,6-.18-1.28-.31-2.44-.4-3.48s-.13-2-.13-2.93V2.47h2.25V19.06H196l-2.5-7.47c-.23-.69-.45-1.4-.65-2.13s-.39-1.5-.57-2.3a2.32,2.32,0,0,0-.07-.37l-.11-.49q0,.27.06.48t0,.33l.12,1.69.11,2c0,.12,0,.26,0,.42s0,.35,0,.56l.11,7.23h-2.2Z" transform="translate(-1.43 -0.81)"/><path class="cls-1" d="M207.08,13.59q0,5.64-3.49,5.64t-3.49-5.72c0-3.84,1.16-5.75,3.48-5.75a3.32,3.32,0,0,1,1.56.34,2.79,2.79,0,0,1,1.09,1.07,5.48,5.48,0,0,1,.64,1.81A14.05,14.05,0,0,1,207.08,13.59ZM205,13.54a10.6,10.6,0,0,0-.29-3,1.07,1.07,0,0,0-1-.87,1.08,1.08,0,0,0-1,.86,10.67,10.67,0,0,0-.29,3,10.63,10.63,0,0,0,.29,3,1.09,1.09,0,0,0,1,.86,1,1,0,0,0,1-.85A9.56,9.56,0,0,0,205,13.54Z" transform="translate(-1.43 -0.81)"/><path class="cls-1" d="M213.67,2.47h2.23v14.7h3.65v1.89h-5.88Z" transform="translate(-1.43 -0.81)"/><path class="cls-1" d="M221.8,3.21a1.32,1.32,0,0,1,1,.41,1.32,1.32,0,0,1,.41,1,1.31,1.31,0,0,1-.41,1,1.39,1.39,0,0,1-2.37-1,1.36,1.36,0,0,1,.41-1A1.42,1.42,0,0,1,221.8,3.21Zm-1,4.73h2.06V19.06h-2.06Z" transform="translate(-1.43 -0.81)"/><path class="cls-1" d="M225.2,7.94h2.05V9.32a2.55,2.55,0,0,1,2.26-1.56,2.06,2.06,0,0,1,2.08,1.56,2.54,2.54,0,0,1,2.32-1.56,2.39,2.39,0,0,1,1.79.62,2.48,2.48,0,0,1,.62,1.82v8.86h-2.06V11.74a3.9,3.9,0,0,0-.24-1.68.88.88,0,0,0-.88-.44,1.08,1.08,0,0,0-1,.45,3.68,3.68,0,0,0-.26,1.67v7.32h-2.12V11.74a6.9,6.9,0,0,0-.06-1,1.91,1.91,0,0,0-.2-.66,1,1,0,0,0-.37-.36,1.17,1.17,0,0,0-.56-.11,1.1,1.1,0,0,0-1,.48,3.28,3.28,0,0,0-.3,1.64v7.32H225.2Z" transform="translate(-1.43 -0.81)"/><path class="cls-1" d="M239.61,3.21a1.32,1.32,0,0,1,1,.41,1.32,1.32,0,0,1,.41,1,1.31,1.31,0,0,1-.41,1,1.39,1.39,0,0,1-2.37-1,1.36,1.36,0,0,1,.41-1A1.44,1.44,0,0,1,239.61,3.21Zm-1,4.73h2.06V19.06h-2.06Z" transform="translate(-1.43 -0.81)"/><path class="cls-1" d="M243.26,4.83h2.05V7.94h1.12V9.57h-1.12v9.49h-2.05V9.57h-1.13V7.94h1.13Z" transform="translate(-1.43 -0.81)"/><path class="cls-1" d="M252.2,8.17v1.92a2.63,2.63,0,0,0-1.58-.56,1.27,1.27,0,0,0-.52.1,1.36,1.36,0,0,0-.41.26,1.22,1.22,0,0,0-.38.89q0,.8,1.44,1.89a9.73,9.73,0,0,1,1,.84,3.31,3.31,0,0,1,.59.73,3.17,3.17,0,0,1,.42,1.7,3.31,3.31,0,0,1-.87,2.4,3.07,3.07,0,0,1-2.31.89,3.59,3.59,0,0,1-1.8-.52v-2a2.88,2.88,0,0,0,1.69.66,1.23,1.23,0,0,0,1.4-1.38,1.53,1.53,0,0,0-.25-.89,2.29,2.29,0,0,0-.38-.43q-.25-.24-.63-.54a8.3,8.3,0,0,1-1.77-1.7,3.11,3.11,0,0,1-.45-1.71,3.07,3.07,0,0,1,.83-2.2,3,3,0,0,1,2.18-.85A3.76,3.76,0,0,1,252.2,8.17Z" transform="translate(-1.43 -0.81)"/><path class="cls-1" d="M255.52,16.57a1.24,1.24,0,0,1,.91.39,1.28,1.28,0,0,1,.39.94,1.25,1.25,0,0,1-.39.93,1.33,1.33,0,0,1-.93.38,1.32,1.32,0,0,1-.53-.1,1.34,1.34,0,0,1-.42-.28,1.19,1.19,0,0,1-.28-.42,1.31,1.31,0,0,1,.28-1.46A1.36,1.36,0,0,1,255.52,16.57Z" transform="translate(-1.43 -0.81)"/></svg>